<?xml version="1.0" encoding="UTF-8" standalone="no"?><!DOCTYPE svg PUBLIC "-//W3C//DTD SVG 1.1//EN" "http://www.w3.org/Graphics/SVG/1.1/DTD/svg11.dtd"><svg width="100%" height="100%" viewBox="0 0 2000 2000" version="1.1" xmlns="http://www.w3.org/2000/svg" xmlns:xlink="http://www.w3.org/1999/xlink" xml:space="preserve" xmlns:serif="http://www.serif.com/" style="fill-rule:evenodd;clip-rule:evenodd;stroke-linejoin:round;stroke-miterlimit:2;"><g><g><g><path d="M1375.53,1269.75c30.891,-391.859 -522.75,-985.402 -522.75,-985.402c207.814,84.368 603.855,231.374 790.344,459.402c141.736,173.308 182.604,457.382 -55.23,680.818c-210.54,197.796 -499.505,169.804 -733.739,-19.217c-137.933,-111.309 -262,-271.144 -384.579,-466.555c0,0 376.929,289.249 905.954,330.954Z" style="fill:url(#_Linear1);"/><path d="M1555.86,792.617c-86.588,-110.439 -1036.23,-569.798 -1036.23,-569.798c0,0 1012.78,866.691 627.323,1332.58l408.906,-762.783Z" style="fill:url(#_Linear2);"/><path d="M1476.95,954.31c-103.071,95.533 -194.487,271.507 -341.977,191.696c-313.308,-169.539 -773.472,-502.857 -773.472,-502.857c0,0 414.212,571.36 625.291,811.995c45.228,51.56 155.393,17.081 155.393,17.081l334.765,-517.915Z" style="fill:url(#_Linear3);"/><path d="M945.737,1251.69c92.074,139.156 593.107,-449.477 560.227,-458.404c-370.041,-100.477 -1360.25,-587.249 -1360.25,-587.249c0,0 527.183,633.296 800.023,1045.65Z" style="fill:url(#_Linear4);"/></g><g><path d="M1733.7,1201.52l28.106,-54.829c24.011,-46.839 113.909,-0.628 87.75,59.05l-1.955,41.008l-12.799,-4.951l-9.518,22.039c-4.259,9.978 -10.467,14.879 -23.053,3.793l-14.635,-13.424c1.809,26.987 0.166,88.875 -13.251,106.27c-27.782,36.016 -60.24,55.017 -63.726,57.132l-19.007,17.8l-57.086,53.264c42.926,13.378 83.786,29.899 124.296,45.896c33.809,14.482 40.646,51.753 28.912,78.084c-1.591,3.57 -124.572,233.438 -124.572,233.438l101.196,33.48l-165.226,0c50.574,-134.924 31.121,-177.504 101.548,-270.912c-64.806,-1.642 -120.601,-7.274 -174.529,-17.119c-61.843,48.272 -102.276,89.114 -174.126,111.44c-82.768,41.568 -127.463,89.356 -216.024,140.248l67.087,36.343l-49.219,0l-110.43,-20.394c136.782,-108.449 162.248,-173.975 262.477,-209.442l101.586,-116.781l103.843,-89.647l127.337,-174.433l94.326,-67.894c0.228,0.182 0.459,0.362 0.692,0.541Z" style="fill:url(#_Radial5);"/><path d="M1538.89,684.186c218.01,164.272 267.103,467.384 109.561,676.461c-157.541,209.076 -462.44,245.452 -680.449,81.18c-218.01,-164.272 -267.103,-467.384 -109.561,-676.461c157.541,-209.076 462.44,-245.452 680.449,-81.18Z" style="fill:url(#_Radial6);"/><path d="M1715.16,1272.03c-73.779,-4.47 -223.828,2.403 -269.393,17.908c-5.542,-1.318 -82.19,36.294 -82.19,36.294c0,0 99.638,4.117 100.67,4.305c40.607,-4.629 143.899,2.756 199.678,13.077l51.235,-71.584Z" style="fill:url(#_Linear7);"/></g></g></g><defs><linearGradient id="_Linear1" x1="0" y1="0" x2="1" y2="0" gradientUnits="userSpaceOnUse" gradientTransform="matrix(1308.14,961.512,-961.512,1308.14,315.853,382.098)"><stop offset="0" style="stop-color:#ff7900;stop-opacity:1"/><stop offset="0.54" style="stop-color:#f60243;stop-opacity:1"/><stop offset="1" style="stop-color:#de0050;stop-opacity:1"/></linearGradient><linearGradient id="_Linear2" x1="0" y1="0" x2="1" y2="0" gradientUnits="userSpaceOnUse" gradientTransform="matrix(1308.14,961.512,-961.512,1308.14,315.853,382.098)"><stop offset="0" style="stop-color:#ff7900;stop-opacity:1"/><stop offset="0.54" style="stop-color:#f60243;stop-opacity:1"/><stop offset="1" style="stop-color:#de0050;stop-opacity:1"/></linearGradient><linearGradient id="_Linear3" x1="0" y1="0" x2="1" y2="0" gradientUnits="userSpaceOnUse" gradientTransform="matrix(1308.14,961.512,-961.512,1308.14,315.853,382.098)"><stop offset="0" style="stop-color:#ff7900;stop-opacity:1"/><stop offset="0.54" style="stop-color:#f60243;stop-opacity:1"/><stop offset="1" style="stop-color:#de0050;stop-opacity:1"/></linearGradient><linearGradient id="_Linear4" x1="0" y1="0" x2="1" y2="0" gradientUnits="userSpaceOnUse" gradientTransform="matrix(1308.14,961.512,-961.512,1308.14,315.853,382.098)"><stop offset="0" style="stop-color:#ff7900;stop-opacity:1"/><stop offset="0.54" style="stop-color:#f60243;stop-opacity:1"/><stop offset="1" style="stop-color:#de0050;stop-opacity:1"/></linearGradient><radialGradient id="_Radial5" cx="0" cy="0" r="1" gradientUnits="userSpaceOnUse" gradientTransform="matrix(42.4525,342.557,-215.16,26.6643,1448.86,1229.3)"><stop offset="0" style="stop-color:#330021;stop-opacity:1"/><stop offset="0.78" style="stop-color:#420129;stop-opacity:1"/><stop offset="1" style="stop-color:#5e0238;stop-opacity:1"/></radialGradient><radialGradient id="_Radial6" cx="0" cy="0" r="1" gradientUnits="userSpaceOnUse" gradientTransform="matrix(605.986,647.494,-647.494,605.986,922.122,826.596)"><stop offset="0" style="stop-color:#77002a;stop-opacity:1"/><stop offset="0.36" style="stop-color:#680038;stop-opacity:1"/><stop offset="0.82" style="stop-color:#550030;stop-opacity:1"/><stop offset="0.88" style="stop-color:#540030;stop-opacity:1"/><stop offset="1" style="stop-color:#330021;stop-opacity:1"/></radialGradient><linearGradient id="_Linear7" x1="0" y1="0" x2="1" y2="0" gradientUnits="userSpaceOnUse" gradientTransform="matrix(270.738,5.14208,-5.14208,270.738,1401.24,1306.28)"><stop offset="0" style="stop-color:#550030;stop-opacity:1"/><stop offset="1" style="stop-color:#5e0238;stop-opacity:1"/></linearGradient></defs></svg>