<?xml version="1.0" encoding="UTF-8" standalone="no"?><!DOCTYPE svg PUBLIC "-//W3C//DTD SVG 1.1//EN" "http://www.w3.org/Graphics/SVG/1.1/DTD/svg11.dtd"><svg width="100%" height="100%" viewBox="0 0 2000 2000" version="1.1" xmlns="http://www.w3.org/2000/svg" xmlns:xlink="http://www.w3.org/1999/xlink" xml:space="preserve" xmlns:serif="http://www.serif.com/" style="fill-rule:evenodd;clip-rule:evenodd;stroke-linejoin:round;stroke-miterlimit:2;"><g><g><g><path d="M1208.97,868.203c17.19,-218.053 -290.888,-548.334 -290.888,-548.334c115.64,46.947 336.02,128.75 439.793,255.638c78.87,96.438 101.611,254.513 -30.733,378.846c-117.157,110.065 -277.954,94.489 -408.295,-10.693c-76.754,-61.939 -145.792,-150.88 -214.002,-259.618c0,0 209.745,160.955 504.125,184.161Z" style="fill:url(#_Linear1);"/><path d="M1309.31,602.701c-48.182,-61.455 -576.617,-317.069 -576.617,-317.069c0,0 563.568,482.278 349.079,741.525l227.538,-424.456Z" style="fill:url(#_Linear2);"/><path d="M1265.4,692.676c-57.355,53.16 -108.224,151.083 -190.296,106.671c-174.343,-94.342 -430.404,-279.818 -430.404,-279.818c0,0 230.491,317.937 347.948,451.84c25.167,28.691 86.47,9.505 86.47,9.505l186.282,-288.198Z" style="fill:url(#_Linear3);"/><path d="M969.805,858.153c51.235,77.435 330.039,-250.114 311.742,-255.082c-205.912,-55.911 -756.921,-326.779 -756.921,-326.779c0,0 293.355,352.402 445.179,581.861Z" style="fill:url(#_Linear4);"/></g><g><path d="M1408.28,830.236l15.64,-30.51c13.361,-26.064 63.385,-0.349 48.828,32.859l-1.087,22.819l-7.122,-2.755l-5.297,12.264c-2.369,5.552 -5.824,8.279 -12.828,2.11l-8.143,-7.469c1.006,15.016 0.092,49.455 -7.374,59.134c-15.459,20.041 -33.521,30.615 -35.461,31.791l-10.577,9.906l-31.766,29.639c23.887,7.444 46.624,16.637 69.166,25.539c18.814,8.059 22.618,28.798 16.088,43.451c-0.885,1.986 -69.319,129.898 -69.319,129.898l56.311,18.63l-91.941,0c28.143,-75.079 17.318,-98.773 56.507,-150.751c-36.061,-0.914 -67.109,-4.048 -97.117,-9.526c-34.413,26.861 -56.913,49.588 -96.894,62.011c-46.057,23.132 -70.928,49.723 -120.208,78.043l37.331,20.223l-27.389,0l-61.449,-11.348c76.113,-60.348 90.284,-96.81 146.057,-116.546l56.529,-64.984l57.784,-49.884l70.857,-97.065l52.489,-37.78c0.127,0.101 0.255,0.201 0.385,0.301Z" style="fill:url(#_Radial5);"/><path d="M1299.87,542.364c121.313,91.41 148.631,260.079 60.966,376.421c-87.665,116.343 -257.328,136.584 -378.642,45.174c-121.313,-91.411 -148.631,-260.08 -60.966,-376.422c87.665,-116.342 257.329,-136.584 378.642,-45.173Z" style="fill:url(#_Radial6);"/><path d="M1397.96,869.472c-41.055,-2.488 -124.551,1.337 -149.906,9.965c-3.084,-0.734 -45.735,20.196 -45.735,20.196c0,0 55.444,2.291 56.018,2.396c22.597,-2.576 80.074,1.533 111.113,7.276l28.51,-39.833Z" style="fill:url(#_Linear7);"/></g></g><text x="186.096px" y="1718.05px" style="font-family:'FirealisticRegular', 'Firealistic';font-weight:500;font-size:435.243px;fill:url(#_Linear8);">F<tspan x="421.127px 519.057px 667.039px 883.79px 1139.71px 1271.16px 1364.73px 1575.39px " y="1718.05px 1718.05px 1718.05px 1718.05px 1718.05px 1718.05px 1718.05px 1718.05px ">ireAtlas</tspan></text></g><defs><linearGradient id="_Linear1" x1="0" y1="0" x2="1" y2="0" gradientUnits="userSpaceOnUse" gradientTransform="matrix(727.926,535.041,-535.041,727.926,619.301,374.265)"><stop offset="0" style="stop-color:#ff7900;stop-opacity:1"/><stop offset="0.54" style="stop-color:#f60243;stop-opacity:1"/><stop offset="1" style="stop-color:#de0050;stop-opacity:1"/></linearGradient><linearGradient id="_Linear2" x1="0" y1="0" x2="1" y2="0" gradientUnits="userSpaceOnUse" gradientTransform="matrix(727.926,535.041,-535.041,727.926,619.301,374.265)"><stop offset="0" style="stop-color:#ff7900;stop-opacity:1"/><stop offset="0.54" style="stop-color:#f60243;stop-opacity:1"/><stop offset="1" style="stop-color:#de0050;stop-opacity:1"/></linearGradient><linearGradient id="_Linear3" x1="0" y1="0" x2="1" y2="0" gradientUnits="userSpaceOnUse" gradientTransform="matrix(727.926,535.041,-535.041,727.926,619.301,374.265)"><stop offset="0" style="stop-color:#ff7900;stop-opacity:1"/><stop offset="0.54" style="stop-color:#f60243;stop-opacity:1"/><stop offset="1" style="stop-color:#de0050;stop-opacity:1"/></linearGradient><linearGradient id="_Linear4" x1="0" y1="0" x2="1" y2="0" gradientUnits="userSpaceOnUse" gradientTransform="matrix(727.926,535.041,-535.041,727.926,619.301,374.265)"><stop offset="0" style="stop-color:#ff7900;stop-opacity:1"/><stop offset="0.54" style="stop-color:#f60243;stop-opacity:1"/><stop offset="1" style="stop-color:#de0050;stop-opacity:1"/></linearGradient><radialGradient id="_Radial5" cx="0" cy="0" r="1" gradientUnits="userSpaceOnUse" gradientTransform="matrix(23.623,190.619,-119.727,14.8376,1249.77,845.695)"><stop offset="0" style="stop-color:#330021;stop-opacity:1"/><stop offset="0.78" style="stop-color:#420129;stop-opacity:1"/><stop offset="1" style="stop-color:#5e0238;stop-opacity:1"/></radialGradient><radialGradient id="_Radial6" cx="0" cy="0" r="1" gradientUnits="userSpaceOnUse" gradientTransform="matrix(337.206,360.303,-360.303,337.206,956.664,621.609)"><stop offset="0" style="stop-color:#77002a;stop-opacity:1"/><stop offset="0.36" style="stop-color:#680038;stop-opacity:1"/><stop offset="0.82" style="stop-color:#550030;stop-opacity:1"/><stop offset="0.88" style="stop-color:#540030;stop-opacity:1"/><stop offset="1" style="stop-color:#330021;stop-opacity:1"/></radialGradient><linearGradient id="_Linear7" x1="0" y1="0" x2="1" y2="0" gradientUnits="userSpaceOnUse" gradientTransform="matrix(150.654,2.86135,-2.86135,150.654,1223.27,888.532)"><stop offset="0" style="stop-color:#550030;stop-opacity:1"/><stop offset="1" style="stop-color:#5e0238;stop-opacity:1"/></linearGradient><linearGradient id="_Linear8" x1="0" y1="0" x2="1" y2="0" gradientUnits="userSpaceOnUse" gradientTransform="matrix(1435.5,29.7112,-29.7112,1435.5,222.221,1549.18)"><stop offset="0" style="stop-color:#eb4c00;stop-opacity:1"/><stop offset="1" style="stop-color:#de0050;stop-opacity:1"/></linearGradient></defs></svg>